<svg xmlns="http://www.w3.org/2000/svg"
     viewBox="0 0 321.76 85.76"
     role="img"
     aria-label="Castle Hayne Jane’s Family Farm">
  <title>Castle Hayne Jane’s Family Farm</title>
  <path d="M17.06 10.22L17.06 10.22Q19.07 10.22 20.82 10.76Q22.56 11.30 24.15 12.38L24.15 12.38L24.18 12.38L24.11 10.44L26.06 10.44L25.62 18.76L24.33 18.76Q24.15 15.37 22.24 13.54Q20.33 11.70 17.20 11.70L17.20 11.70Q15.29 11.70 13.58 12.51Q11.87 13.32 10.52 14.83Q9.17 16.34 8.36 18.47Q7.55 20.59 7.41 23.26L7.41 23.26Q7.23 26.64 8.40 29.23Q9.57 31.82 11.67 33.26Q13.78 34.70 16.44 34.70L16.44 34.70Q18.78 34.70 21.09 33.68Q23.39 32.65 24.94 30.67L24.94 30.67L25.84 31.43Q24.18 33.52 22.31 34.63Q20.44 35.75 18.66 36.16Q16.88 36.58 15.40 36.58L15.40 36.58Q12.70 36.58 10.54 35.60Q8.38 34.63 6.87 32.89Q5.36 31.14 4.62 28.82Q3.88 26.50 4.02 23.80L4.02 23.80Q4.17 21.24 5.03 18.83Q5.90 16.42 7.52 14.47Q9.14 12.53 11.53 11.38Q13.92 10.22 17.06 10.22ZM38.76 17.60L38.76 17.60Q39.84 17.60 41.14 17.77Q42.44 17.93 43.59 18.22L43.59 18.22Q43.30 20.38 43.03 22.52Q42.76 24.66 42.53 26.59Q42.29 28.51 42.15 30.04Q42.00 31.57 42.00 32.44L42.00 32.44Q42.00 33.16 42.11 33.88Q42.22 34.60 43.01 34.60L43.01 34.60Q43.62 34.60 44.36 33.80Q45.10 33.01 45.64 31.10L45.64 31.10L46.65 31.32Q46.54 31.97 46.20 32.81Q45.86 33.66 45.28 34.49Q44.70 35.32 43.88 35.86Q43.05 36.40 41.97 36.40L41.97 36.40Q40.53 36.40 39.92 35.50Q39.30 34.60 39.30 33.16L39.30 33.16Q39.30 32.11 39.50 30.89Q39.70 29.66 39.95 28.33L39.95 28.33L39.84 28.33Q38.98 31.00 38.06 32.60Q37.14 34.20 36.23 35.03Q35.31 35.86 34.44 36.13Q33.58 36.40 32.82 36.40L32.82 36.40Q30.88 36.40 29.57 34.96Q28.25 33.52 28.25 30.13L28.25 30.13Q28.25 27.61 28.90 25.34Q29.55 23.08 30.86 21.33Q32.18 19.58 34.16 18.59Q36.14 17.60 38.76 17.60ZM37.65 18.90L37.65 18.90Q36.03 18.90 34.82 19.80Q33.62 20.70 32.82 22.23Q32.03 23.76 31.65 25.65Q31.28 27.54 31.28 29.52L31.28 29.52Q31.28 31.82 31.78 33.32Q32.28 34.81 33.62 34.81L33.62 34.81Q34.59 34.81 35.58 33.84Q36.57 32.87 37.43 31.23Q38.30 29.59 38.98 27.56Q39.66 25.52 40.06 23.40Q40.46 21.28 40.46 19.33L40.46 19.33Q39.92 19.12 39.20 19.01Q38.48 18.90 37.65 18.90ZM53.49 36.40L53.49 36.40Q52.05 36.40 50.72 35.95Q49.38 35.50 48.56 34.63Q47.73 33.77 47.73 32.54L47.73 32.54Q47.73 31.75 48.18 31.27Q48.63 30.78 49.28 30.78L49.28 30.78Q50.00 30.78 50.37 31.25Q50.75 31.72 50.75 32.29L50.75 32.29Q50.75 32.54 50.68 32.83Q50.61 33.12 50.43 33.41L50.43 33.41Q50.72 34.20 51.58 34.63Q52.44 35.06 53.42 35.06L53.42 35.06Q55.36 35.06 56.33 34.16Q57.30 33.26 57.30 31.64L57.30 31.64Q57.30 30.67 56.62 29.92Q55.94 29.16 54.89 28.49Q53.85 27.83 52.73 27.18L52.73 27.18Q51.69 26.53 50.73 25.85Q49.78 25.16 49.19 24.34Q48.59 23.51 48.59 22.46L48.59 22.46Q48.59 21.13 49.38 20.03Q50.18 18.94 51.58 18.27Q52.98 17.60 54.82 17.60L54.82 17.60Q56.19 17.60 57.39 18.04Q58.60 18.47 59.37 19.26Q60.15 20.05 60.15 21.13L60.15 21.13Q60.15 21.89 59.72 22.34Q59.28 22.79 58.64 22.79L58.64 22.79Q57.99 22.79 57.59 22.36Q57.20 21.92 57.20 21.35L57.20 21.35Q57.20 21.06 57.27 20.79Q57.34 20.52 57.52 20.23L57.52 20.23Q57.34 19.62 56.64 19.21Q55.94 18.79 54.71 18.79L54.71 18.79Q53.92 18.79 53.16 19.15Q52.41 19.51 51.90 20.14Q51.40 20.77 51.40 21.64L51.40 21.64Q51.40 22.32 51.81 22.90Q52.23 23.47 52.91 23.98Q53.60 24.48 54.39 24.98L54.39 24.98Q55.68 25.74 57.05 26.59Q58.42 27.43 59.34 28.51Q60.26 29.59 60.26 31.14L60.26 31.14Q60.26 32.65 59.41 33.84Q58.56 35.03 57.03 35.71Q55.50 36.40 53.49 36.40ZM68.50 12.92L69.87 12.92L69.22 18.00L74.94 18.00L74.84 19.37L69.08 19.44Q68.93 20.95 68.73 22.55Q68.54 24.16 68.39 25.74Q68.25 27.32 68.14 28.78Q68.03 30.24 68.03 31.43L68.03 31.43Q68.03 32.11 68.12 32.85Q68.21 33.59 68.57 34.07Q68.93 34.56 69.72 34.56L69.72 34.56Q70.08 34.56 70.61 34.42Q71.13 34.27 71.78 33.73Q72.42 33.19 73.11 32.04L73.11 32.04L74.04 32.65Q73.00 34.49 71.79 35.44Q70.59 36.40 68.86 36.40L68.86 36.40Q67.46 36.40 66.65 35.80Q65.84 35.21 65.48 34.24Q65.12 33.26 65.12 32.15L65.12 32.15Q65.12 30.78 65.22 28.82Q65.33 26.86 65.55 24.46Q65.76 22.07 66.05 19.48L66.05 19.48L62.85 19.51L62.96 18.00Q65.44 18.00 66.63 16.67Q67.82 15.34 68.50 12.92L68.50 12.92ZM81.86 8.82L82.86 8.82Q82.76 9.72 82.56 10.84Q82.36 11.95 82.20 13.03Q82.04 14.11 81.93 14.94L81.93 14.94Q81.71 16.45 81.50 18.38Q81.28 20.30 81.06 22.37Q80.85 24.44 80.69 26.42Q80.52 28.40 80.42 30.04Q80.31 31.68 80.31 32.72L80.31 32.72Q80.31 33.41 80.45 34.00Q80.60 34.60 81.28 34.60L81.28 34.60Q81.89 34.60 82.63 33.82Q83.37 33.05 83.91 31.10L83.91 31.10L84.92 31.36Q84.81 31.97 84.47 32.83Q84.12 33.70 83.55 34.51Q82.97 35.32 82.16 35.86Q81.35 36.40 80.27 36.40L80.27 36.40Q78.80 36.40 78.11 35.66Q77.43 34.92 77.39 33.48L77.39 33.48Q77.36 32.58 77.48 30.82Q77.61 29.05 77.81 26.80Q78.00 24.55 78.26 22.09Q78.51 19.62 78.80 17.28Q79.08 14.94 79.34 13.03L79.34 13.03Q79.52 12.06 79.57 11.75Q79.62 11.45 79.66 11.09L79.66 11.09Q79.01 11.12 78.38 11.16Q77.75 11.20 77.10 11.23L77.10 11.23L77.28 9.79Q78.87 9.79 79.75 9.65Q80.63 9.50 81.10 9.29Q81.57 9.07 81.86 8.82L81.86 8.82ZM95.50 17.60L95.50 17.60Q96.80 17.60 97.95 18.00Q99.10 18.40 99.82 19.30Q100.54 20.20 100.54 21.74L100.54 21.74Q100.54 23.22 99.53 24.30Q98.52 25.38 96.90 26.08Q95.28 26.78 93.45 27.22Q91.61 27.65 89.92 27.83L89.92 27.83Q89.92 30.06 90.37 31.57Q90.82 33.08 91.72 33.84Q92.62 34.60 94.02 34.60L94.02 34.60Q95.07 34.60 96.13 34.13Q97.19 33.66 98.16 32.71Q99.14 31.75 99.93 30.24L99.93 30.24L101.12 30.92Q100.11 32.80 98.96 34.02Q97.80 35.24 96.44 35.82Q95.07 36.40 93.41 36.40L93.41 36.40Q89.99 36.40 88.37 34.25Q86.75 32.11 86.75 28.62L86.75 28.62Q86.75 26.53 87.29 24.55Q87.83 22.57 88.91 21.01Q89.99 19.44 91.65 18.52Q93.30 17.60 95.50 17.60ZM95.00 18.83L95.00 18.83Q93.34 18.83 92.28 19.94Q91.22 21.06 90.66 22.82Q90.10 24.59 89.96 26.53L89.96 26.53Q91.86 26.28 93.59 25.63Q95.32 24.98 96.44 23.96Q97.55 22.93 97.55 21.56L97.55 21.56Q97.55 20.41 96.92 19.62Q96.29 18.83 95.00 18.83ZM130.67 10.80L138.63 10.80L138.56 11.99Q137.40 12.02 136.85 12.49Q136.29 12.96 136.11 13.81Q135.93 14.65 135.86 15.95L135.86 15.95L135.03 31.72Q134.99 32.69 134.92 33.39Q134.85 34.09 134.78 34.56L134.78 34.56Q135.42 34.52 136.07 34.49Q136.72 34.45 137.37 34.42L137.37 34.42L137.30 36L129.34 36L129.41 34.81Q130.78 34.74 131.32 34.18Q131.86 33.62 131.97 32.63Q132.08 31.64 132.11 30.38L132.11 30.38L132.47 23.83L119.55 23.98L119.15 31.72Q119.12 32.69 119.04 33.39Q118.97 34.09 118.90 34.56L118.90 34.56Q119.55 34.52 120.20 34.49Q120.84 34.45 121.49 34.42L121.49 34.42L121.42 36L113.46 36L113.54 34.81Q114.90 34.74 115.43 34.18Q115.95 33.62 116.06 32.63Q116.16 31.64 116.24 30.38L116.24 30.38L117.06 14.83Q117.14 14.11 117.19 13.45Q117.24 12.78 117.32 12.24L117.32 12.24Q116.67 12.28 116.02 12.31Q115.37 12.35 114.72 12.38L114.72 12.38L114.80 10.80L122.75 10.80L122.68 11.99Q121.53 12.02 120.97 12.49Q120.41 12.96 120.23 13.82Q120.05 14.69 119.98 15.98L119.98 15.98L119.62 22.39L132.54 22.39L132.94 14.83Q132.98 14.11 133.05 13.45Q133.12 12.78 133.19 12.24L133.19 12.24Q132.54 12.28 131.90 12.31Q131.25 12.35 130.60 12.38L130.60 12.38L130.67 10.80ZM151.12 17.60L151.12 17.60Q152.20 17.60 153.50 17.77Q154.79 17.93 155.94 18.22L155.94 18.22Q155.66 20.38 155.39 22.52Q155.12 24.66 154.88 26.59Q154.65 28.51 154.50 30.04Q154.36 31.57 154.36 32.44L154.36 32.44Q154.36 33.16 154.47 33.88Q154.58 34.60 155.37 34.60L155.37 34.60Q155.98 34.60 156.72 33.80Q157.46 33.01 158.00 31.10L158.00 31.10L159.00 31.32Q158.90 31.97 158.55 32.81Q158.21 33.66 157.64 34.49Q157.06 35.32 156.23 35.86Q155.40 36.40 154.32 36.40L154.32 36.40Q152.88 36.40 152.27 35.50Q151.66 34.60 151.66 33.16L151.66 33.16Q151.66 32.11 151.86 30.89Q152.06 29.66 152.31 28.33L152.31 28.33L152.20 28.33Q151.34 31.00 150.42 32.60Q149.50 34.20 148.58 35.03Q147.66 35.86 146.80 36.13Q145.94 36.40 145.18 36.40L145.18 36.40Q143.24 36.40 141.92 34.96Q140.61 33.52 140.61 30.13L140.61 30.13Q140.61 27.61 141.26 25.34Q141.90 23.08 143.22 21.33Q144.53 19.58 146.51 18.59Q148.49 17.60 151.12 17.60ZM150.00 18.90L150.00 18.90Q148.38 18.90 147.18 19.80Q145.97 20.70 145.18 22.23Q144.39 23.76 144.01 25.65Q143.63 27.54 143.63 29.52L143.63 29.52Q143.63 31.82 144.14 33.32Q144.64 34.81 145.97 34.81L145.97 34.81Q146.94 34.81 147.93 33.84Q148.92 32.87 149.79 31.23Q150.65 29.59 151.34 27.56Q152.02 25.52 152.42 23.40Q152.81 21.28 152.81 19.33L152.81 19.33Q152.27 19.12 151.55 19.01Q150.83 18.90 150.00 18.90ZM161.31 45.76L161.31 45.76Q160.08 45.68 159.33 45.05Q158.57 44.42 158.57 43.49L158.57 43.49Q158.57 42.66 159.08 42.25Q159.58 41.83 160.05 41.83L160.05 41.83Q161.67 41.83 161.60 43.70L161.60 43.70Q161.81 43.81 161.99 43.88Q162.17 43.96 162.39 43.96L162.39 43.96Q163.18 43.99 164.03 43.38Q164.87 42.77 165.65 41.85Q166.42 40.93 167.01 40.05Q167.61 39.17 167.90 38.70L167.90 38.70Q167.57 36.61 167.14 34.40Q166.71 32.18 166.15 29.97Q165.59 27.76 164.93 25.69Q164.26 23.62 163.50 21.78L163.50 21.78Q163.25 21.17 162.86 20.52Q162.46 19.87 161.74 19.94L161.74 19.94Q161.06 20.02 160.71 21.02Q160.37 22.03 160.52 23.69L160.52 23.69L159.36 23.83Q159.26 22.86 159.35 21.78Q159.44 20.70 159.80 19.75Q160.16 18.79 160.84 18.20Q161.52 17.60 162.64 17.60L162.64 17.60Q163.86 17.60 164.64 18.25Q165.41 18.90 165.90 19.84Q166.38 20.77 166.71 21.67L166.71 21.67Q167.39 23.51 168.04 25.88Q168.69 28.26 169.17 30.73Q169.66 33.19 169.91 35.32L169.91 35.32L169.98 35.32Q170.99 33.55 171.93 31.43Q172.86 29.30 173.48 27.09Q174.09 24.88 174.09 22.93L174.09 22.93Q174.09 22.03 173.93 21.35Q173.76 20.66 173.55 20.38L173.55 20.38Q173.40 20.48 173.17 20.54Q172.94 20.59 172.65 20.59L172.65 20.59Q172.00 20.59 171.60 20.18Q171.21 19.76 171.21 19.19L171.21 19.19Q171.21 18.40 171.73 18.00Q172.25 17.60 172.90 17.60L172.90 17.60Q174.02 17.60 174.63 18.29Q175.24 18.97 175.51 20.02Q175.78 21.06 175.78 22.21L175.78 22.21Q175.78 24.59 175.10 27.07Q174.41 29.56 173.31 31.97Q172.22 34.38 170.99 36.61L170.99 36.61Q169.19 39.85 167.55 41.90Q165.92 43.96 164.37 44.87Q162.82 45.79 161.31 45.76ZM194.54 36.40L194.54 36.40Q192.84 36.40 192.23 35.50Q191.62 34.60 191.62 32.94L191.62 32.94Q191.62 31.93 191.78 30.56Q191.94 29.20 192.18 27.65Q192.41 26.10 192.57 24.52Q192.74 22.93 192.74 21.49L192.74 21.49Q192.74 21.06 192.61 20.56Q192.48 20.05 192.12 19.67Q191.76 19.30 191.04 19.30L191.04 19.30Q190.04 19.30 189.03 20.23Q188.02 21.17 187.12 22.75Q186.22 24.34 185.50 26.26Q184.78 28.19 184.37 30.22Q183.95 32.26 183.95 34.09L183.95 34.09Q183.95 34.63 183.97 35.08Q183.99 35.53 184.02 36L184.02 36L181.00 36Q180.96 35.75 180.96 35.55Q180.96 35.35 180.96 35.06L180.96 35.06Q180.96 34.45 181.04 33.64Q181.11 32.83 181.27 31.48Q181.43 30.13 181.68 27.86L181.68 27.86Q181.94 25.74 182.06 24.55Q182.19 23.36 182.26 22.73Q182.33 22.10 182.35 21.76Q182.37 21.42 182.37 21.02L182.37 21.02Q182.37 20.38 182.19 19.89Q182.01 19.40 181.40 19.40L181.40 19.40Q180.82 19.40 180.06 20.20Q179.31 20.99 178.77 22.90L178.77 22.90L177.76 22.68Q177.87 22.03 178.21 21.19Q178.55 20.34 179.13 19.51Q179.70 18.68 180.53 18.14Q181.36 17.60 182.44 17.60L182.44 17.60Q183.66 17.60 184.26 18.27Q184.85 18.94 185.01 19.98Q185.18 21.02 185.10 22.21L185.10 22.21Q185.03 23.22 184.87 24.16Q184.71 25.09 184.56 25.81L184.56 25.81L184.67 25.81Q185.90 22.54 187.08 20.75Q188.27 18.97 189.44 18.29Q190.61 17.60 191.76 17.60L191.76 17.60Q193.20 17.60 194.07 18.25Q194.93 18.90 195.31 19.96Q195.69 21.02 195.69 22.28L195.69 22.28Q195.69 24.26 195.42 26.33Q195.15 28.40 194.88 30.15Q194.61 31.90 194.61 32.94L194.61 32.94Q194.61 33.59 194.77 34.09Q194.93 34.60 195.58 34.60L195.58 34.60Q196.19 34.60 196.93 33.82Q197.67 33.05 198.21 31.10L198.21 31.10L199.22 31.36Q199.11 31.97 198.77 32.83Q198.42 33.70 197.85 34.51Q197.27 35.32 196.44 35.86Q195.62 36.40 194.54 36.40ZM209.80 17.60L209.80 17.60Q211.10 17.60 212.25 18.00Q213.40 18.40 214.12 19.30Q214.84 20.20 214.84 21.74L214.84 21.74Q214.84 23.22 213.83 24.30Q212.82 25.38 211.20 26.08Q209.58 26.78 207.75 27.22Q205.91 27.65 204.22 27.83L204.22 27.83Q204.22 30.06 204.67 31.57Q205.12 33.08 206.02 33.84Q206.92 34.60 208.32 34.60L208.32 34.60Q209.37 34.60 210.43 34.13Q211.49 33.66 212.46 32.71Q213.44 31.75 214.23 30.24L214.23 30.24L215.42 30.92Q214.41 32.80 213.26 34.02Q212.10 35.24 210.74 35.82Q209.37 36.40 207.71 36.40L207.71 36.40Q204.29 36.40 202.67 34.25Q201.05 32.11 201.05 28.62L201.05 28.62Q201.05 26.53 201.59 24.55Q202.13 22.57 203.21 21.01Q204.29 19.44 205.95 18.52Q207.60 17.60 209.80 17.60ZM209.30 18.83L209.30 18.83Q207.64 18.83 206.58 19.94Q205.52 21.06 204.96 22.82Q204.40 24.59 204.26 26.53L204.26 26.53Q206.16 26.28 207.89 25.63Q209.62 24.98 210.74 23.96Q211.85 22.93 211.85 21.56L211.85 21.56Q211.85 20.41 211.22 19.62Q210.59 18.83 209.30 18.83ZM229.85 10.80L239.28 10.80L239.18 11.99Q237.99 11.99 237.38 12.46Q236.76 12.92 236.53 13.73Q236.30 14.54 236.22 15.55L236.22 15.55L235.65 27.22Q235.47 30.60 234.80 32.65Q234.14 34.70 232.82 35.64Q231.51 36.58 229.42 36.58L229.42 36.58Q228.56 36.58 227.73 36.34Q226.90 36.11 226.34 35.53Q225.78 34.96 225.78 34.02L225.78 34.02Q225.78 33.30 226.20 32.74Q226.61 32.18 227.37 32.15L227.37 32.15Q228.27 32.08 228.66 32.63Q229.06 33.19 229.06 33.73L229.06 33.73Q229.06 33.91 229.02 34.15Q228.99 34.38 228.92 34.56L228.92 34.56Q229.10 34.85 229.46 34.99Q229.82 35.14 230.10 35.14L230.10 35.14Q230.54 35.10 231.06 34.85Q231.58 34.60 231.99 33.61Q232.41 32.62 232.52 30.49L232.52 30.49L233.24 16.20Q233.31 15.19 233.36 14.22Q233.42 13.25 233.45 12.24L233.45 12.24Q232.84 12.24 232.23 12.28Q231.62 12.31 231.00 12.33Q230.39 12.35 229.78 12.38L229.78 12.38L229.85 10.80ZM250.70 17.60L250.70 17.60Q251.78 17.60 253.07 17.77Q254.37 17.93 255.52 18.22L255.52 18.22Q255.23 20.38 254.96 22.52Q254.69 24.66 254.46 26.59Q254.22 28.51 254.08 30.04Q253.94 31.57 253.94 32.44L253.94 32.44Q253.94 33.16 254.04 33.88Q254.15 34.60 254.94 34.60L254.94 34.60Q255.56 34.60 256.29 33.80Q257.03 33.01 257.57 31.10L257.57 31.10L258.58 31.32Q258.47 31.97 258.13 32.81Q257.79 33.66 257.21 34.49Q256.64 35.32 255.81 35.86Q254.98 36.40 253.90 36.40L253.90 36.40Q252.46 36.40 251.85 35.50Q251.24 34.60 251.24 33.16L251.24 33.16Q251.24 32.11 251.43 30.89Q251.63 29.66 251.88 28.33L251.88 28.33L251.78 28.33Q250.91 31.00 249.99 32.60Q249.08 34.20 248.16 35.03Q247.24 35.86 246.38 36.13Q245.51 36.40 244.76 36.40L244.76 36.40Q242.81 36.40 241.50 34.96Q240.18 33.52 240.18 30.13L240.18 30.13Q240.18 27.61 240.83 25.34Q241.48 23.08 242.79 21.33Q244.11 19.58 246.09 18.59Q248.07 17.60 250.70 17.60ZM249.58 18.90L249.58 18.90Q247.96 18.90 246.75 19.80Q245.55 20.70 244.76 22.23Q243.96 23.76 243.59 25.65Q243.21 27.54 243.21 29.52L243.21 29.52Q243.21 31.82 243.71 33.32Q244.22 34.81 245.55 34.81L245.55 34.81Q246.52 34.81 247.51 33.84Q248.50 32.87 249.36 31.23Q250.23 29.59 250.91 27.56Q251.60 25.52 251.99 23.40Q252.39 21.28 252.39 19.33L252.39 19.33Q251.85 19.12 251.13 19.01Q250.41 18.90 249.58 18.90ZM275.61 36.40L275.61 36.40Q273.92 36.40 273.30 35.50Q272.69 34.60 272.69 32.94L272.69 32.94Q272.69 31.93 272.85 30.56Q273.02 29.20 273.25 27.65Q273.48 26.10 273.65 24.52Q273.81 22.93 273.81 21.49L273.81 21.49Q273.81 21.06 273.68 20.56Q273.56 20.05 273.20 19.67Q272.84 19.30 272.12 19.30L272.12 19.30Q271.11 19.30 270.10 20.23Q269.09 21.17 268.19 22.75Q267.29 24.34 266.57 26.26Q265.85 28.19 265.44 30.22Q265.02 32.26 265.02 34.09L265.02 34.09Q265.02 34.63 265.04 35.08Q265.06 35.53 265.10 36L265.10 36L262.07 36Q262.04 35.75 262.04 35.55Q262.04 35.35 262.04 35.06L262.04 35.06Q262.04 34.45 262.11 33.64Q262.18 32.83 262.34 31.48Q262.50 30.13 262.76 27.86L262.76 27.86Q263.01 25.74 263.13 24.55Q263.26 23.36 263.33 22.73Q263.40 22.10 263.42 21.76Q263.44 21.42 263.44 21.02L263.44 21.02Q263.44 20.38 263.26 19.89Q263.08 19.40 262.47 19.40L262.47 19.40Q261.89 19.40 261.14 20.20Q260.38 20.99 259.84 22.90L259.84 22.90L258.83 22.68Q258.94 22.03 259.28 21.19Q259.62 20.34 260.20 19.51Q260.78 18.68 261.60 18.14Q262.43 17.60 263.51 17.60L263.51 17.60Q264.74 17.60 265.33 18.27Q265.92 18.94 266.09 19.98Q266.25 21.02 266.18 22.21L266.18 22.21Q266.10 23.22 265.94 24.16Q265.78 25.09 265.64 25.81L265.64 25.81L265.74 25.81Q266.97 22.54 268.16 20.75Q269.34 18.97 270.51 18.29Q271.68 17.60 272.84 17.60L272.84 17.60Q274.28 17.60 275.14 18.25Q276.00 18.90 276.38 19.96Q276.76 21.02 276.76 22.28L276.76 22.28Q276.76 24.26 276.49 26.33Q276.22 28.40 275.95 30.15Q275.68 31.90 275.68 32.94L275.68 32.94Q275.68 33.59 275.84 34.09Q276.00 34.60 276.65 34.60L276.65 34.60Q277.26 34.60 278.00 33.82Q278.74 33.05 279.28 31.10L279.28 31.10L280.29 31.36Q280.18 31.97 279.84 32.83Q279.50 33.70 278.92 34.51Q278.34 35.32 277.52 35.86Q276.69 36.40 275.61 36.40ZM290.87 17.60L290.87 17.60Q292.17 17.60 293.32 18.00Q294.47 18.40 295.19 19.30Q295.91 20.20 295.91 21.74L295.91 21.74Q295.91 23.22 294.90 24.30Q293.90 25.38 292.28 26.08Q290.66 26.78 288.82 27.22Q286.98 27.65 285.29 27.83L285.29 27.83Q285.29 30.06 285.74 31.57Q286.19 33.08 287.09 33.84Q287.99 34.60 289.40 34.60L289.40 34.60Q290.44 34.60 291.50 34.13Q292.56 33.66 293.54 32.71Q294.51 31.75 295.30 30.24L295.30 30.24L296.49 30.92Q295.48 32.80 294.33 34.02Q293.18 35.24 291.81 35.82Q290.44 36.40 288.78 36.40L288.78 36.40Q285.36 36.40 283.74 34.25Q282.12 32.11 282.12 28.62L282.12 28.62Q282.12 26.53 282.66 24.55Q283.20 22.57 284.28 21.01Q285.36 19.44 287.02 18.52Q288.68 17.60 290.87 17.60ZM290.37 18.83L290.37 18.83Q288.71 18.83 287.65 19.94Q286.59 21.06 286.03 22.82Q285.47 24.59 285.33 26.53L285.33 26.53Q287.24 26.28 288.96 25.63Q290.69 24.98 291.81 23.96Q292.92 22.93 292.92 21.56L292.92 21.56Q292.92 20.41 292.29 19.62Q291.66 18.83 290.37 18.83ZM301.71 8.64L301.71 8.64Q302.79 8.64 303.40 9.43Q304.01 10.22 304.01 11.45L304.01 11.45Q304.01 12.35 303.69 13.59Q303.36 14.83 302.72 16.16Q302.07 17.50 301.06 18.61L301.06 18.61L300.16 17.89Q300.77 17.17 301.22 16.20Q301.67 15.23 301.92 14.17Q302.18 13.10 302.18 12.17L302.18 12.17Q302.00 12.20 301.78 12.26Q301.56 12.31 301.28 12.31L301.28 12.31Q300.59 12.31 300.14 11.81Q299.69 11.30 299.69 10.66L299.69 10.66Q299.69 9.68 300.29 9.16Q300.88 8.64 301.71 8.64ZM311.00 36.40L311.00 36.40Q309.56 36.40 308.22 35.95Q306.89 35.50 306.06 34.63Q305.24 33.77 305.24 32.54L305.24 32.54Q305.24 31.75 305.69 31.27Q306.14 30.78 306.78 30.78L306.78 30.78Q307.50 30.78 307.88 31.25Q308.26 31.72 308.26 32.29L308.26 32.29Q308.26 32.54 308.19 32.83Q308.12 33.12 307.94 33.41L307.94 33.41Q308.22 34.20 309.09 34.63Q309.95 35.06 310.92 35.06L310.92 35.06Q312.87 35.06 313.84 34.16Q314.81 33.26 314.81 31.64L314.81 31.64Q314.81 30.67 314.13 29.92Q313.44 29.16 312.40 28.49Q311.36 27.83 310.24 27.18L310.24 27.18Q309.20 26.53 308.24 25.85Q307.29 25.16 306.69 24.34Q306.10 23.51 306.10 22.46L306.10 22.46Q306.10 21.13 306.89 20.03Q307.68 18.94 309.09 18.27Q310.49 17.60 312.33 17.60L312.33 17.60Q313.70 17.60 314.90 18.04Q316.11 18.47 316.88 19.26Q317.66 20.05 317.66 21.13L317.66 21.13Q317.66 21.89 317.22 22.34Q316.79 22.79 316.14 22.79L316.14 22.79Q315.50 22.79 315.10 22.36Q314.70 21.92 314.70 21.35L314.70 21.35Q314.70 21.06 314.78 20.79Q314.85 20.52 315.03 20.23L315.03 20.23Q314.85 19.62 314.15 19.21Q313.44 18.79 312.22 18.79L312.22 18.79Q311.43 18.79 310.67 19.15Q309.92 19.51 309.41 20.14Q308.91 20.77 308.91 21.64L308.91 21.64Q308.91 22.32 309.32 22.90Q309.74 23.47 310.42 23.98Q311.10 24.48 311.90 24.98L311.90 24.98Q313.19 25.74 314.56 26.59Q315.93 27.43 316.85 28.51Q317.76 29.59 317.76 31.14L317.76 31.14Q317.76 32.65 316.92 33.84Q316.07 35.03 314.54 35.71Q313.01 36.40 311.00 36.40Z" fill="currentColor"/>
  <path d="M60.60 46.80L77.16 46.80L77.02 53.10L75.83 53.10Q75.94 50.98 75.31 49.88Q74.68 48.78 73.58 48.40Q72.48 48.02 71.12 48.06L71.12 48.06L68.49 48.13Q67.26 48.17 66.71 48.64Q66.15 49.10 66.00 49.99Q65.86 50.87 65.79 52.13L65.79 52.13L65.43 58.75L68.24 58.75Q69.53 58.72 70.32 58.50Q71.12 58.28 71.53 57.56Q71.94 56.84 72.02 55.37L72.02 55.37L73.20 55.37L72.81 63.25L71.62 63.25Q71.69 61.78 71.35 61.11Q71.01 60.44 70.23 60.26Q69.46 60.08 68.16 60.08L68.16 60.08Q67.48 60.08 66.78 60.10Q66.08 60.12 65.36 60.19L65.36 60.19L64.96 67.72Q64.92 68.69 64.85 69.39Q64.78 70.09 64.71 70.56L64.71 70.56Q65.32 70.52 65.93 70.51Q66.54 70.49 67.16 70.45Q67.77 70.42 68.38 70.42L68.38 70.42L68.31 72L59.27 72L59.34 70.81Q60.71 70.74 61.25 70.18Q61.79 69.62 61.90 68.63Q62.01 67.64 62.04 66.38L62.04 66.38L62.91 50.83Q62.94 50.11 63.02 49.45Q63.09 48.78 63.16 48.24L63.16 48.24Q62.51 48.28 61.85 48.31Q61.18 48.35 60.53 48.38L60.53 48.38L60.60 46.80ZM87.75 53.60L87.75 53.60Q88.83 53.60 90.12 53.77Q91.42 53.93 92.57 54.22L92.57 54.22Q92.28 56.38 92.01 58.52Q91.74 60.66 91.51 62.59Q91.28 64.51 91.13 66.04Q90.99 67.57 90.99 68.44L90.99 68.44Q90.99 69.16 91.10 69.88Q91.20 70.60 92.00 70.60L92.00 70.60Q92.61 70.60 93.35 69.80Q94.08 69.01 94.62 67.10L94.62 67.10L95.63 67.32Q95.52 67.97 95.18 68.81Q94.84 69.66 94.26 70.49Q93.69 71.32 92.86 71.86Q92.03 72.40 90.95 72.40L90.95 72.40Q89.51 72.40 88.90 71.50Q88.29 70.60 88.29 69.16L88.29 69.16Q88.29 68.11 88.49 66.89Q88.68 65.66 88.94 64.33L88.94 64.33L88.83 64.33Q87.96 67.00 87.05 68.60Q86.13 70.20 85.21 71.03Q84.29 71.86 83.43 72.13Q82.56 72.40 81.81 72.40L81.81 72.40Q79.86 72.40 78.55 70.96Q77.24 69.52 77.24 66.13L77.24 66.13Q77.24 63.61 77.88 61.34Q78.53 59.08 79.85 57.33Q81.16 55.58 83.14 54.59Q85.12 53.60 87.75 53.60ZM86.63 54.90L86.63 54.90Q85.01 54.90 83.81 55.80Q82.60 56.70 81.81 58.23Q81.02 59.76 80.64 61.65Q80.26 63.54 80.26 65.52L80.26 65.52Q80.26 67.82 80.76 69.32Q81.27 70.81 82.60 70.81L82.60 70.81Q83.57 70.81 84.56 69.84Q85.55 68.87 86.42 67.23Q87.28 65.59 87.96 63.56Q88.65 61.52 89.04 59.40Q89.44 57.28 89.44 55.33L89.44 55.33Q88.90 55.12 88.18 55.01Q87.46 54.90 86.63 54.90ZM122.02 72.40L122.02 72.40Q120.33 72.40 119.73 71.50Q119.14 70.60 119.14 68.94L119.14 68.94Q119.14 67.93 119.34 66.56Q119.54 65.20 119.79 63.65Q120.04 62.10 120.24 60.52Q120.44 58.93 120.44 57.49L120.44 57.49Q120.44 57.06 120.29 56.56Q120.15 56.05 119.79 55.67Q119.43 55.30 118.71 55.30L118.71 55.30Q117.70 55.30 116.73 56.23Q115.76 57.17 114.93 58.75Q114.10 60.34 113.47 62.26Q112.84 64.19 112.48 66.22Q112.12 68.26 112.12 70.09L112.12 70.09Q112.12 70.63 112.14 71.08Q112.16 71.53 112.19 72L112.19 72L109.17 72Q109.13 71.75 109.13 71.55Q109.13 71.35 109.13 71.06L109.13 71.06Q109.13 69.70 109.33 67.82Q109.53 65.95 109.80 63.97Q110.07 61.99 110.27 60.23Q110.46 58.46 110.43 57.35L110.43 57.35Q110.39 56.74 110.07 56.02Q109.74 55.30 108.70 55.30L108.70 55.30Q107.69 55.30 106.74 56.23Q105.78 57.17 104.96 58.75Q104.13 60.34 103.48 62.26Q102.83 64.19 102.47 66.22Q102.11 68.26 102.11 70.09L102.11 70.09Q102.11 70.63 102.13 71.08Q102.15 71.53 102.18 72L102.18 72L99.16 72Q99.12 71.75 99.12 71.55Q99.12 71.35 99.12 71.06L99.12 71.06Q99.12 70.45 99.18 69.64Q99.23 68.83 99.39 67.48Q99.56 66.13 99.81 63.86L99.81 63.86Q100.06 61.74 100.20 60.55Q100.35 59.36 100.42 58.73Q100.49 58.10 100.51 57.76Q100.53 57.42 100.53 57.02L100.53 57.02Q100.53 56.38 100.35 55.89Q100.17 55.40 99.56 55.40L99.56 55.40Q98.98 55.40 98.22 56.20Q97.47 56.99 96.93 58.90L96.93 58.90L95.92 58.68Q96.03 58.03 96.37 57.19Q96.71 56.34 97.29 55.51Q97.86 54.68 98.69 54.14Q99.52 53.60 100.60 53.60L100.60 53.60Q101.79 53.60 102.36 54.20Q102.94 54.79 103.14 55.75Q103.34 56.70 103.26 57.82L103.26 57.82Q103.23 58.82 103.05 59.85Q102.87 60.88 102.72 61.63L102.72 61.63L102.83 61.63Q103.98 58.36 105.12 56.63Q106.25 54.90 107.35 54.25Q108.45 53.60 109.42 53.60L109.42 53.60Q110.86 53.60 111.71 54.27Q112.55 54.94 112.91 55.87Q113.27 56.81 113.27 57.71L113.27 57.71Q113.27 58.72 113.13 59.44Q112.98 60.16 112.66 61.52L112.66 61.52L112.77 61.52Q113.96 58.25 115.13 56.54Q116.30 54.83 117.41 54.22Q118.53 53.60 119.50 53.60L119.50 53.60Q120.94 53.60 121.77 54.25Q122.60 54.90 122.94 55.96Q123.28 57.02 123.28 58.28L123.28 58.28Q123.28 60.26 122.99 62.33Q122.70 64.40 122.40 66.15Q122.09 67.90 122.09 68.94L122.09 68.94Q122.09 69.59 122.25 70.09Q122.42 70.60 123.06 70.60L123.06 70.60Q123.68 70.60 124.43 69.82Q125.19 69.05 125.73 67.10L125.73 67.10L126.74 67.36Q126.63 67.97 126.27 68.83Q125.91 69.70 125.33 70.51Q124.76 71.32 123.93 71.86Q123.10 72.40 122.02 72.40ZM131.96 53.60L131.96 53.60Q133.47 53.60 134.22 54.63Q134.98 55.66 134.98 57.35L134.98 57.35Q134.98 58.43 134.78 59.81Q134.58 61.20 134.30 62.78Q134.01 64.37 133.81 65.97Q133.61 67.57 133.61 69.08L133.61 69.08Q133.61 69.80 133.88 70.20Q134.15 70.60 134.73 70.60L134.73 70.60Q135.34 70.60 136.08 69.80Q136.82 69.01 137.36 67.10L137.36 67.10L138.36 67.32Q138.22 68.08 137.88 68.96Q137.54 69.84 137.00 70.61Q136.46 71.39 135.68 71.89Q134.91 72.40 133.90 72.40L133.90 72.40Q132.24 72.40 131.45 71.53Q130.66 70.67 130.66 69.01L130.66 69.01Q130.66 67.43 130.88 65.93Q131.09 64.44 131.36 62.98Q131.63 61.52 131.85 60.05Q132.06 58.57 132.06 57.02L132.06 57.02Q132.06 56.56 131.87 55.98Q131.67 55.40 131.06 55.40L131.06 55.40Q130.48 55.40 129.72 56.20Q128.97 56.99 128.43 58.90L128.43 58.90L127.42 58.68Q127.53 58.03 127.85 57.19Q128.18 56.34 128.73 55.51Q129.29 54.68 130.08 54.14Q130.88 53.60 131.96 53.60ZM134.01 45.83L134.01 45.83Q134.84 45.83 135.38 46.39Q135.92 46.94 135.92 47.88L135.92 47.88Q135.92 48.78 135.34 49.34Q134.76 49.90 133.97 49.90L133.97 49.90Q133.18 49.90 132.62 49.34Q132.06 48.78 132.06 47.88L132.06 47.88Q132.06 46.94 132.64 46.39Q133.22 45.83 134.01 45.83ZM145.53 44.82L146.54 44.82Q146.43 45.72 146.23 46.84Q146.03 47.95 145.87 49.03Q145.71 50.11 145.60 50.94L145.60 50.94Q145.38 52.45 145.17 54.38Q144.95 56.30 144.74 58.37Q144.52 60.44 144.36 62.42Q144.20 64.40 144.09 66.04Q143.98 67.68 143.98 68.72L143.98 68.72Q143.98 69.41 144.12 70.00Q144.27 70.60 144.95 70.60L144.95 70.60Q145.56 70.60 146.30 69.82Q147.04 69.05 147.58 67.10L147.58 67.10L148.59 67.36Q148.48 67.97 148.14 68.83Q147.80 69.70 147.22 70.51Q146.64 71.32 145.83 71.86Q145.02 72.40 143.94 72.40L143.94 72.40Q142.47 72.40 141.78 71.66Q141.10 70.92 141.06 69.48L141.06 69.48Q141.03 68.58 141.15 66.82Q141.28 65.05 141.48 62.80Q141.68 60.55 141.93 58.09Q142.18 55.62 142.47 53.28Q142.76 50.94 143.01 49.03L143.01 49.03Q143.19 48.06 143.24 47.75Q143.30 47.45 143.33 47.09L143.33 47.09Q142.68 47.12 142.05 47.16Q141.42 47.20 140.78 47.23L140.78 47.23L140.96 45.79Q142.54 45.79 143.42 45.65Q144.30 45.50 144.77 45.29Q145.24 45.07 145.53 44.82L145.53 44.82ZM151.50 81.76L151.50 81.76Q150.28 81.68 149.52 81.05Q148.77 80.42 148.77 79.49L148.77 79.49Q148.77 78.66 149.27 78.25Q149.78 77.83 150.24 77.83L150.24 77.83Q151.86 77.83 151.79 79.70L151.79 79.70Q152.01 79.81 152.19 79.88Q152.37 79.96 152.58 79.96L152.58 79.96Q153.38 79.99 154.22 79.38Q155.07 78.77 155.84 77.85Q156.62 76.93 157.21 76.05Q157.80 75.17 158.09 74.70L158.09 74.70Q157.77 72.61 157.34 70.40Q156.90 68.18 156.35 65.97Q155.79 63.76 155.12 61.69Q154.46 59.62 153.70 57.78L153.70 57.78Q153.45 57.17 153.05 56.52Q152.66 55.87 151.94 55.94L151.94 55.94Q151.25 56.02 150.91 57.02Q150.57 58.03 150.71 59.69L150.71 59.69L149.56 59.83Q149.45 58.86 149.54 57.78Q149.63 56.70 149.99 55.75Q150.35 54.79 151.04 54.20Q151.72 53.60 152.84 53.60L152.84 53.60Q154.06 53.60 154.83 54.25Q155.61 54.90 156.09 55.84Q156.58 56.77 156.90 57.67L156.90 57.67Q157.59 59.51 158.24 61.88Q158.88 64.26 159.37 66.73Q159.86 69.19 160.11 71.32L160.11 71.32L160.18 71.32Q161.19 69.55 162.12 67.43Q163.06 65.30 163.67 63.09Q164.28 60.88 164.28 58.93L164.28 58.93Q164.28 58.03 164.12 57.35Q163.96 56.66 163.74 56.38L163.74 56.38Q163.60 56.48 163.37 56.54Q163.13 56.59 162.84 56.59L162.84 56.59Q162.20 56.59 161.80 56.18Q161.40 55.76 161.40 55.19L161.40 55.19Q161.40 54.40 161.93 54Q162.45 53.60 163.10 53.60L163.10 53.60Q164.21 53.60 164.82 54.29Q165.44 54.97 165.71 56.02Q165.98 57.06 165.98 58.21L165.98 58.21Q165.98 60.59 165.29 63.07Q164.61 65.56 163.51 67.97Q162.41 70.38 161.19 72.61L161.19 72.61Q159.39 75.85 157.75 77.90Q156.11 79.96 154.56 80.87Q153.02 81.79 151.50 81.76ZM179.98 46.80L196.54 46.80L196.40 53.10L195.21 53.10Q195.32 50.98 194.69 49.88Q194.06 48.78 192.96 48.40Q191.86 48.02 190.49 48.06L190.49 48.06L187.86 48.13Q186.64 48.17 186.08 48.64Q185.52 49.10 185.38 49.99Q185.24 50.87 185.16 52.13L185.16 52.13L184.80 58.75L187.61 58.75Q188.91 58.72 189.70 58.50Q190.49 58.28 190.91 57.56Q191.32 56.84 191.39 55.37L191.39 55.37L192.58 55.37L192.18 63.25L191.00 63.25Q191.07 61.78 190.73 61.11Q190.38 60.44 189.61 60.26Q188.84 60.08 187.54 60.08L187.54 60.08Q186.86 60.08 186.15 60.10Q185.45 60.12 184.73 60.19L184.73 60.19L184.34 67.72Q184.30 68.69 184.23 69.39Q184.16 70.09 184.08 70.56L184.08 70.56Q184.70 70.52 185.31 70.51Q185.92 70.49 186.53 70.45Q187.14 70.42 187.76 70.42L187.76 70.42L187.68 72L178.65 72L178.72 70.81Q180.09 70.74 180.63 70.18Q181.17 69.62 181.28 68.63Q181.38 67.64 181.42 66.38L181.42 66.38L182.28 50.83Q182.32 50.11 182.39 49.45Q182.46 48.78 182.54 48.24L182.54 48.24Q181.89 48.28 181.22 48.31Q180.56 48.35 179.91 48.38L179.91 48.38L179.98 46.80ZM207.12 53.60L207.12 53.60Q208.20 53.60 209.50 53.77Q210.80 53.93 211.95 54.22L211.95 54.22Q211.66 56.38 211.39 58.52Q211.12 60.66 210.89 62.59Q210.65 64.51 210.51 66.04Q210.36 67.57 210.36 68.44L210.36 68.44Q210.36 69.16 210.47 69.88Q210.58 70.60 211.37 70.60L211.37 70.60Q211.98 70.60 212.72 69.80Q213.46 69.01 214.00 67.10L214.00 67.10L215.01 67.32Q214.90 67.97 214.56 68.81Q214.22 69.66 213.64 70.49Q213.06 71.32 212.24 71.86Q211.41 72.40 210.33 72.40L210.33 72.40Q208.89 72.40 208.28 71.50Q207.66 70.60 207.66 69.16L207.66 69.16Q207.66 68.11 207.86 66.89Q208.06 65.66 208.31 64.33L208.31 64.33L208.20 64.33Q207.34 67.00 206.42 68.60Q205.50 70.20 204.59 71.03Q203.67 71.86 202.80 72.13Q201.94 72.40 201.18 72.40L201.18 72.40Q199.24 72.40 197.93 70.96Q196.61 69.52 196.61 66.13L196.61 66.13Q196.61 63.61 197.26 61.34Q197.91 59.08 199.22 57.33Q200.54 55.58 202.52 54.59Q204.50 53.60 207.12 53.60ZM206.01 54.90L206.01 54.90Q204.39 54.90 203.18 55.80Q201.98 56.70 201.18 58.23Q200.39 59.76 200.01 61.65Q199.64 63.54 199.64 65.52L199.64 65.52Q199.64 67.82 200.14 69.32Q200.64 70.81 201.98 70.81L201.98 70.81Q202.95 70.81 203.94 69.84Q204.93 68.87 205.79 67.23Q206.66 65.59 207.34 63.56Q208.02 61.52 208.42 59.40Q208.82 57.28 208.82 55.33L208.82 55.33Q208.28 55.12 207.56 55.01Q206.84 54.90 206.01 54.90ZM221.63 72L218.64 72Q218.61 71.75 218.61 71.55Q218.61 71.35 218.61 71.06L218.61 71.06Q218.61 70.45 218.64 69.61Q218.68 68.76 218.81 67.36Q218.93 65.95 219.18 63.68L219.18 63.68Q219.44 61.34 219.58 60.16Q219.72 58.97 219.80 58.41Q219.87 57.85 219.87 57.49L219.87 57.49Q219.90 56.77 219.78 56.09Q219.65 55.40 218.90 55.40L218.90 55.40Q218.32 55.40 217.56 56.20Q216.81 56.99 216.27 58.90L216.27 58.90L215.26 58.68Q215.37 58.03 215.71 57.19Q216.05 56.34 216.63 55.51Q217.20 54.68 218.03 54.14Q218.86 53.60 219.94 53.60L219.94 53.60Q221.56 53.60 222.10 54.72Q222.64 55.84 222.57 57.71L222.57 57.71Q222.53 58.50 222.37 59.45Q222.21 60.41 222.03 61.45L222.03 61.45L222.14 61.45Q223.18 58.32 224.31 56.63Q225.45 54.94 226.62 54.27Q227.79 53.60 228.94 53.60L228.94 53.60Q230.02 53.60 230.74 54.16Q231.46 54.72 231.46 55.69L231.46 55.69Q231.46 56.34 231.01 56.88Q230.56 57.42 229.80 57.42L229.80 57.42Q229.16 57.42 228.69 57.02Q228.22 56.63 228.15 55.91L228.15 55.91Q227.14 55.69 226.19 56.56Q225.23 57.42 224.39 59.02Q223.54 60.62 222.91 62.60Q222.28 64.58 221.92 66.64Q221.56 68.69 221.56 70.45L221.56 70.45Q221.56 70.99 221.58 71.26Q221.60 71.53 221.63 72L221.63 72ZM257.78 72.40L257.78 72.40Q256.08 72.40 255.49 71.50Q254.90 70.60 254.90 68.94L254.90 68.94Q254.90 67.93 255.09 66.56Q255.29 65.20 255.54 63.65Q255.80 62.10 255.99 60.52Q256.19 58.93 256.19 57.49L256.19 57.49Q256.19 57.06 256.05 56.56Q255.90 56.05 255.54 55.67Q255.18 55.30 254.46 55.30L254.46 55.30Q253.46 55.30 252.48 56.23Q251.51 57.17 250.68 58.75Q249.86 60.34 249.23 62.26Q248.60 64.19 248.24 66.22Q247.88 68.26 247.88 70.09L247.88 70.09Q247.88 70.63 247.89 71.08Q247.91 71.53 247.95 72L247.95 72L244.92 72Q244.89 71.75 244.89 71.55Q244.89 71.35 244.89 71.06L244.89 71.06Q244.89 69.70 245.09 67.82Q245.28 65.95 245.55 63.97Q245.82 61.99 246.02 60.23Q246.22 58.46 246.18 57.35L246.18 57.35Q246.15 56.74 245.82 56.02Q245.50 55.30 244.46 55.30L244.46 55.30Q243.45 55.30 242.49 56.23Q241.54 57.17 240.71 58.75Q239.88 60.34 239.24 62.26Q238.59 64.19 238.23 66.22Q237.87 68.26 237.87 70.09L237.87 70.09Q237.87 70.63 237.89 71.08Q237.90 71.53 237.94 72L237.94 72L234.92 72Q234.88 71.75 234.88 71.55Q234.88 71.35 234.88 71.06L234.88 71.06Q234.88 70.45 234.93 69.64Q234.99 68.83 235.15 67.48Q235.31 66.13 235.56 63.86L235.56 63.86Q235.82 61.74 235.96 60.55Q236.10 59.36 236.18 58.73Q236.25 58.10 236.27 57.76Q236.28 57.42 236.28 57.02L236.28 57.02Q236.28 56.38 236.10 55.89Q235.92 55.40 235.31 55.40L235.31 55.40Q234.74 55.40 233.98 56.20Q233.22 56.99 232.68 58.90L232.68 58.90L231.68 58.68Q231.78 58.03 232.13 57.19Q232.47 56.34 233.04 55.51Q233.62 54.68 234.45 54.14Q235.28 53.60 236.36 53.60L236.36 53.60Q237.54 53.60 238.12 54.20Q238.70 54.79 238.89 55.75Q239.09 56.70 239.02 57.82L239.02 57.82Q238.98 58.82 238.80 59.85Q238.62 60.88 238.48 61.63L238.48 61.63L238.59 61.63Q239.74 58.36 240.87 56.63Q242.01 54.90 243.11 54.25Q244.20 53.60 245.18 53.60L245.18 53.60Q246.62 53.60 247.46 54.27Q248.31 54.94 248.67 55.87Q249.03 56.81 249.03 57.71L249.03 57.71Q249.03 58.72 248.88 59.44Q248.74 60.16 248.42 61.52L248.42 61.52L248.52 61.52Q249.71 58.25 250.88 56.54Q252.05 54.83 253.17 54.22Q254.28 53.60 255.26 53.60L255.26 53.60Q256.70 53.60 257.52 54.25Q258.35 54.90 258.69 55.96Q259.04 57.02 259.04 58.28L259.04 58.28Q259.04 60.26 258.75 62.33Q258.46 64.40 258.15 66.15Q257.85 67.90 257.85 68.94L257.85 68.94Q257.85 69.59 258.01 70.09Q258.17 70.60 258.82 70.60L258.82 70.60Q259.43 70.60 260.19 69.82Q260.94 69.05 261.48 67.10L261.48 67.10L262.49 67.36Q262.38 67.97 262.02 68.83Q261.66 69.70 261.09 70.51Q260.51 71.32 259.68 71.86Q258.86 72.40 257.78 72.40Z" fill="currentColor"/>
</svg>